<?xml version="1.0" encoding="UTF-8" standalone="no"?>
<svg
   xmlns:dc="http://purl.org/dc/elements/1.1/"
   xmlns:cc="http://creativecommons.org/ns#"
   xmlns:rdf="http://www.w3.org/1999/02/22-rdf-syntax-ns#"
   xmlns:svg="http://www.w3.org/2000/svg"
   xmlns="http://www.w3.org/2000/svg"
   xmlns:sodipodi="http://sodipodi.sourceforge.net/DTD/sodipodi-0.dtd"
   xmlns:inkscape="http://www.inkscape.org/namespaces/inkscape"
   id="freifunk-iot_by_ps"
   viewBox="0 0 130.57002 93.635686"
   version="1.1"
   sodipodi:docname="ffiot_logo_website.svg"
   width="130.57002"
   height="93.635689"
   inkscape:version="0.92.2 2405546, 2018-03-11">
  <metadata
     id="metadata3861">
    <rdf:RDF>
      <cc:Work
         rdf:about="">
        <dc:format>image/svg+xml</dc:format>
        <dc:type
           rdf:resource="http://purl.org/dc/dcmitype/StillImage" />
        <dc:title>2018-12-06_marvin_freifunk-iot_Logo_path_rgb</dc:title>
      </cc:Work>
    </rdf:RDF>
  </metadata>
  <sodipodi:namedview
     pagecolor="#ffffff"
     bordercolor="#666666"
     borderopacity="1"
     objecttolerance="10"
     gridtolerance="10"
     guidetolerance="10"
     inkscape:pageopacity="0"
     inkscape:pageshadow="2"
     inkscape:window-width="1920"
     inkscape:window-height="1061"
     id="namedview3859"
     showgrid="false"
     inkscape:pagecheckerboard="true"
     fit-margin-top="0"
     fit-margin-left="0"
     fit-margin-right="0"
     fit-margin-bottom="0"
     inkscape:zoom="6.9511024"
     inkscape:cx="64.794014"
     inkscape:cy="36.724559"
     inkscape:window-x="1920"
     inkscape:window-y="0"
     inkscape:window-maximized="0"
     inkscape:current-layer="freifunk-iot_by_ps" />
  <defs
     id="defs3809">
    <style
       id="style3807">.cls-1{fill:#181716;}.cls-2{fill:#fbb900;}.cls-3{fill:#004d9e;}</style>
  </defs>
  <title
     id="title3811">2018-12-06_marvin_freifunk-iot_Logo_path_rgb</title>
  <g
     id="Bobbel"
     transform="translate(-0.97098541,0.0856133)">
    <path
       class="cls-2"
       d="m 119.47,20.92 a 3.31,3.31 0 0 0 -2.09,-4.19 l -2.1,6.27 a 3.31,3.31 0 0 0 4.19,-2.08 z"
       transform="translate(-4.53,-5.67)"
       id="path3844"
       inkscape:connector-curvature="0"
       style="fill:#fbb900" />
    <path
       class="cls-2"
       d="m 125.39,49.4 a 1.1,1.1 0 0 0 -1.21,1 l -1,10.08 a 2.22,2.22 0 1 0 2.21,0.21 l 1,-10.08 a 1.11,1.11 0 0 0 -1,-1.21 z m 0.41,13.23 a 1.67,1.67 0 0 1 -3.32,-0.32 1.59,1.59 0 0 1 1.25,-1.42 v -0.11 l 0.26,-2.72 a 0.55274316,0.55274316 0 0 1 1.1,0.11 l -0.26,2.72 V 61 a 1.6,1.6 0 0 1 0.97,1.63 z"
       transform="translate(-4.53,-5.67)"
       id="path3846"
       inkscape:connector-curvature="0"
       style="fill:#fbb900" />
    <circle
       class="cls-2"
       cx="16.870001"
       cy="64.160004"
       r="1.0599999"
       transform="rotate(-7.53,-28.510314,95.799991)"
       id="circle3848"
       style="fill:#fbb900" />
    <path
       class="cls-2"
       d="m 17.33,60.28 a 0.35,0.35 0 0 0 -0.5,0.07 l -3.05,4 a 0.35302266,0.35302266 0 0 0 0.56,0.43 l 3,-4 a 0.35,0.35 0 0 0 -0.01,-0.5 z"
       transform="translate(-4.53,-5.67)"
       id="path3850"
       inkscape:connector-curvature="0"
       style="fill:#fbb900" />
    <circle
       class="cls-2"
       cx="14.3"
       cy="60.93"
       r="1.0599999"
       transform="matrix(0.99,-0.13,0.13,0.99,-12.39,-3.27)"
       id="circle3852"
       style="fill:#fbb900" />
    <path
       class="cls-2"
       d="m 124.72,45.35 a 11.31,11.31 0 0 0 -10.65,15.19 l -36.78,21.3 32.82,-49.23 a 14.21,14.21 0 1 0 -3.33,-2.22 L 72.36,82 67.86,30.27 a 9.91,9.91 0 1 0 -4.09,0.89 h 0.15 l 4.35,50 L 33.5,35.53 A 12.72,12.72 0 1 0 30.37,38 L 64.29,82.55 25,64 a 10,10 0 1 0 -2,3.49 l 47,22.18 v 0 h 0.05 l 0.18,0.07 h 0.08 0.06 0.07 a 2,2 0 0 0 0.41,0 h 0.15 0.19 0.12 0.06 0.05 0.07 l 0.23,-0.09 v 0 0 0 L 116.07,64 a 11.34,11.34 0 1 0 8.65,-18.66 z M 112,22.75 l -2.78,1.39 a 0.72225342,0.72225342 0 0 1 -0.65,-1.29 l 2.78,-1.38 a 0.72,0.72 0 0 1 1,0.32 0.71,0.71 0 0 1 -0.35,0.96 z m 3.3,2.14 -1,2.94 a 0.72258218,0.72258218 0 1 1 -1.37,-0.46 l 1,-2.94 a 0.72258218,0.72258218 0 1 1 1.37,0.46 z m 4.91,2.93 a 0.73,0.73 0 0 1 -0.55,0 0.71,0.71 0 0 1 -0.42,-0.36 l -1.38,-2.78 a 0.72001736,0.72001736 0 0 1 1.29,-0.64 l 1.39,2.78 a 0.72,0.72 0 0 1 -0.35,0.99 z m 4.47,-5.15 a 0.72,0.72 0 0 1 -0.91,0.46 l -2.94,-1 a 0.72258218,0.72258218 0 1 1 0.46,-1.37 l 2.94,1 a 0.72,0.72 0 0 1 0.43,0.9 z m -4.22,-5.74 2.78,-1.39 a 0.72225342,0.72225342 0 1 1 0.65,1.29 l -2.78,1.38 a 0.72001736,0.72001736 0 1 1 -0.64,-1.29 z m -3.3,-2.14 1,-2.95 a 0.72258218,0.72258218 0 1 1 1.37,0.46 l -1,2.95 a 0.72258218,0.72258218 0 0 1 -1.37,-0.46 z m 0.33,1.3 a 4,4 0 1 1 -5,2.49 4,4 0 0 1 4.97,-2.5 z m -5.24,-4.22 a 0.73,0.73 0 0 1 1,0.33 l 1.33,2.8 a 0.72,0.72 0 0 1 -0.32,1 0.72,0.72 0 0 1 -1,-0.33 l -1.39,-2.78 a 0.72,0.72 0 0 1 0.36,-1.04 z m -4.5,5.13 a 0.72,0.72 0 0 1 0.91,-0.45 l 2.94,1 a 0.72258218,0.72258218 0 1 1 -0.46,1.37 l -2.94,-1 A 0.72,0.72 0 0 1 107.75,17 Z m -37,5 v 0.33 A 0.29,0.29 0 0 1 70.5,22.65 L 68.39,23 a 0.29,0.29 0 0 1 -0.32,-0.25 v -0.33 a 0.29,0.29 0 0 1 0.25,-0.32 l 2.13,-0.27 A 0.29,0.29 0 0 1 70.72,22 Z m -6.17,-7.72 h 0.33 a 0.29,0.29 0 0 1 0.32,0.25 l 0.27,2.13 a 0.29,0.29 0 0 1 -0.25,0.32 H 64.92 A 0.29,0.29 0 0 1 64.6,16.73 L 64.33,14.6 a 0.29,0.29 0 0 1 0.23,-0.29 z m -1.8,0.23 h 0.33 a 0.29,0.29 0 0 1 0.32,0.25 l 0.27,2.13 a 0.29,0.29 0 0 1 -0.25,0.32 H 63.12 A 0.29,0.29 0 0 1 62.8,16.96 l -0.27,-2.13 a 0.29,0.29 0 0 1 0.23,-0.29 z m -1.8,0.23 h 0.33 a 0.29,0.29 0 0 1 0.32,0.25 l 0.27,2.13 a 0.29,0.29 0 0 1 -0.25,0.32 H 61.32 A 0.29,0.29 0 0 1 61,17.19 L 60.73,15.06 A 0.29,0.29 0 0 1 61,14.77 Z m -4.13,5.71 V 20.12 A 0.29,0.29 0 0 1 57.1,19.8 l 2.13,-0.27 a 0.29,0.29 0 0 1 0.32,0.25 v 0.33 a 0.29,0.29 0 0 1 -0.25,0.32 l -2.13,0.27 a 0.29,0.29 0 0 1 -0.34,-0.22 z m 0.23,1.8 v -0.33 a 0.29,0.29 0 0 1 0.25,-0.32 l 2.13,-0.27 a 0.29,0.29 0 0 1 0.32,0.25 v 0.33 a 0.29,0.29 0 0 1 -0.25,0.32 L 57.4,22.5 a 0.29,0.29 0 0 1 -0.34,-0.22 z m 2.68,1.77 -2.13,0.27 a 0.29,0.29 0 0 1 -0.32,-0.25 v -0.33 a 0.29,0.29 0 0 1 0.25,-0.32 l 2.13,-0.27 a 0.29,0.29 0 0 1 0.32,0.25 v 0.33 a 0.29,0.29 0 0 1 -0.27,0.35 z M 63,28.21 h -0.33 a 0.29,0.29 0 0 1 -0.32,-0.25 l -0.27,-2.13 a 0.29,0.29 0 0 1 0.25,-0.32 h 0.33 a 0.29,0.29 0 0 1 0.32,0.25 l 0.27,2.13 A 0.29,0.29 0 0 1 63,28.21 Z M 64.8,28 h -0.33 a 0.29,0.29 0 0 1 -0.32,-0.25 l -0.27,-2.13 a 0.29,0.29 0 0 1 0.25,-0.32 h 0.33 a 0.29,0.29 0 0 1 0.32,0.25 L 65,27.66 A 0.29,0.29 0 0 1 64.8,28 Z m 1.8,-0.23 h -0.33 a 0.29,0.29 0 0 1 -0.32,-0.25 l -0.27,-2.13 a 0.29,0.29 0 0 1 0.25,-0.32 h 0.33 a 0.29,0.29 0 0 1 0.32,0.25 l 0.27,2.13 a 0.29,0.29 0 0 1 -0.25,0.3 z M 67.08,24 61.29,24.73 a 0.25,0.25 0 0 1 -0.28,-0.22 l -0.73,-5.79 a 0.25,0.25 0 0 1 0.22,-0.28 l 5.79,-0.73 a 0.25,0.25 0 0 1 0.28,0.22 l 0.73,5.79 A 0.25,0.25 0 0 1 67.08,24 Z m 0.54,-4.92 v -0.33 a 0.29,0.29 0 0 1 0.25,-0.32 L 70,18.19 a 0.29,0.29 0 0 1 0.32,0.25 v 0.33 a 0.29,0.29 0 0 1 -0.25,0.32 l -2.13,0.27 a 0.29,0.29 0 0 1 -0.32,-0.24 z m 0.19,1.46 a 0.29,0.29 0 0 1 0.25,-0.32 L 70.18,20 a 0.29,0.29 0 0 1 0.32,0.25 v 0.33 a 0.29,0.29 0 0 1 -0.25,0.32 l -2.13,0.27 A 0.29,0.29 0 0 1 67.8,20.92 Z m -35.18,1.72 -5,6.51 a 0.6,0.6 0 0 1 -1,-0.07 l -2,-3.55 -4.41,5.79 a 0.59,0.59 0 0 1 -0.52,0.24 0.6,0.6 0 0 1 -0.48,-0.3 l -2,-3.43 -2,3.43 a 0.6,0.6 0 0 1 -1,-0.6 l 2.48,-4.34 a 0.6,0.6 0 0 1 1,0 l 2,3.55 4.41,-5.79 a 0.6,0.6 0 0 1 1,0.07 l 2,3.55 4.41,-5.79 a 0.61905169,0.61905169 0 1 1 1,0.73 z M 16.15,66.76 A 4.26,4.26 0 0 1 11.38,63.1 c -0.22,-1.66 0.7,-3.21 1.66,-4.85 a 21.88,21.88 0 0 0 1.34,-2.52 0.37,0.37 0 0 1 0.6,-0.08 21.79,21.79 0 0 0 2,2.09 c 1.36,1.33 2.65,2.59 2.87,4.25 a 4.26,4.26 0 0 1 -3.7,4.77 z m 110.76,-4 a 2.78,2.78 0 1 1 -4.21,-2.6 l 0.94,-9.8 a 1.66,1.66 0 0 1 1.82,-1.48 1.63,1.63 0 0 1 1.5,1.79 L 126,60.45 a 2.76,2.76 0 0 1 0.9,2.28 z"
       transform="translate(-4.53,-5.67)"
       id="path3854"
       inkscape:connector-curvature="0"
       style="fill:#fbb900" />
  </g>
  <path
     id="Wolke"
     class="cls-3"
     d="m 95.729015,93.625613 c 8.369995,0 15.119995,-7.47 15.129995,-16 a 16.07,16.07 0 0 0 -14.209995,-16 c 0,-0.5 0.05,-1 0.05,-1.52 0,-12.79 -10.77,-23.16 -24.08,-23.17 a 24.16,24.16 0 0 0 -22.07,13.8 v 0 a 11.81,11.81 0 0 0 -19,9 17.49,17.49 0 0 0 -11.4,16.39 c 0,8.85 6.52,17.54 15.1,17.51"
     inkscape:connector-curvature="0"
     style="fill:#004d9e" />
</svg>
